<mxfile host="app.diagrams.net" modified="2023-06-13T08:56:55.716Z" agent="Mozilla/5.0 (Windows NT 10.0; Win64; x64) AppleWebKit/537.36 (KHTML, like Gecko) Chrome/113.0.0.0 Safari/537.36" etag="O8Kzc9M1Oecc6D-Zmxk3" version="21.3.7" type="github">
  <diagram name="第 1 页" id="OpbI_X0LJHIwqqdgK4kd">
    <mxGraphModel dx="600" dy="295" grid="1" gridSize="10" guides="1" tooltips="1" connect="1" arrows="1" fold="1" page="1" pageScale="1" pageWidth="827" pageHeight="1169" math="0" shadow="0">
      <root>
        <mxCell id="0" />
        <mxCell id="1" parent="0" />
        <mxCell id="57bB1F5KusvmnFi43Xfc-3" style="edgeStyle=orthogonalEdgeStyle;rounded=0;orthogonalLoop=1;jettySize=auto;html=1;entryX=0.5;entryY=0;entryDx=0;entryDy=0;" edge="1" parent="1" source="57bB1F5KusvmnFi43Xfc-1" target="57bB1F5KusvmnFi43Xfc-2">
          <mxGeometry relative="1" as="geometry" />
        </mxCell>
        <mxCell id="57bB1F5KusvmnFi43Xfc-1" value="开始" style="rounded=1;whiteSpace=wrap;html=1;" vertex="1" parent="1">
          <mxGeometry x="270" y="130" width="80" height="30" as="geometry" />
        </mxCell>
        <mxCell id="57bB1F5KusvmnFi43Xfc-2" value="" style="rounded=0;whiteSpace=wrap;html=1;" vertex="1" parent="1">
          <mxGeometry x="250" y="190" width="120" height="40" as="geometry" />
        </mxCell>
      </root>
    </mxGraphModel>
  </diagram>
</mxfile>
